<mxfile host="65bd71144e">
    <diagram id="k7jCOorFeI-6vmAFBIDb" name="Page-1">
        <mxGraphModel dx="707" dy="432" grid="0" gridSize="10" guides="1" tooltips="1" connect="1" arrows="1" fold="1" page="1" pageScale="1" pageWidth="827" pageHeight="1169" background="#ffffff" math="0" shadow="0">
            <root>
                <mxCell id="0"/>
                <mxCell id="1" parent="0"/>
                <mxCell id="32" value="" style="rounded=0;whiteSpace=wrap;html=1;" parent="1" vertex="1">
                    <mxGeometry x="310" y="600" width="160" height="130" as="geometry"/>
                </mxCell>
                <mxCell id="29" value="" style="rounded=0;whiteSpace=wrap;html=1;" parent="1" vertex="1">
                    <mxGeometry x="600" y="640" width="140" height="100" as="geometry"/>
                </mxCell>
                <mxCell id="27" value="" style="rounded=0;whiteSpace=wrap;html=1;" parent="1" vertex="1">
                    <mxGeometry x="490" y="310" width="140" height="110" as="geometry"/>
                </mxCell>
                <mxCell id="31" value="" style="rounded=0;whiteSpace=wrap;html=1;" parent="1" vertex="1">
                    <mxGeometry x="310" y="730" width="160" height="10" as="geometry"/>
                </mxCell>
                <mxCell id="46" style="edgeStyle=orthogonalEdgeStyle;rounded=0;orthogonalLoop=1;jettySize=auto;html=1;entryX=1;entryY=0.25;entryDx=0;entryDy=0;endArrow=openThin;endFill=0;strokeColor=#000000;" parent="1" source="28" target="32" edge="1">
                    <mxGeometry relative="1" as="geometry"/>
                </mxCell>
                <mxCell id="28" value="" style="rounded=0;whiteSpace=wrap;html=1;" parent="1" vertex="1">
                    <mxGeometry x="600" y="740" width="140" height="100" as="geometry"/>
                </mxCell>
                <mxCell id="44" style="edgeStyle=orthogonalEdgeStyle;rounded=0;orthogonalLoop=1;jettySize=auto;html=1;exitX=0;exitY=0.75;exitDx=0;exitDy=0;endArrow=openThin;endFill=0;strokeColor=#000000;" parent="1" source="27" target="33" edge="1">
                    <mxGeometry relative="1" as="geometry"/>
                </mxCell>
                <mxCell id="26" value="" style="rounded=0;whiteSpace=wrap;html=1;" parent="1" vertex="1">
                    <mxGeometry x="490" y="420" width="140" height="10" as="geometry"/>
                </mxCell>
                <mxCell id="2" value="utilisateur" style="rounded=0;whiteSpace=wrap;html=1;" parent="1" vertex="1">
                    <mxGeometry x="60" y="260" width="140" height="40" as="geometry"/>
                </mxCell>
                <mxCell id="3" value="" style="rounded=0;whiteSpace=wrap;html=1;" parent="1" vertex="1">
                    <mxGeometry x="60" y="300" width="140" height="150" as="geometry"/>
                </mxCell>
                <mxCell id="41" style="edgeStyle=orthogonalEdgeStyle;rounded=0;orthogonalLoop=1;jettySize=auto;html=1;exitX=0.75;exitY=1;exitDx=0;exitDy=0;entryX=0;entryY=0.5;entryDx=0;entryDy=0;endArrow=openThin;endFill=0;strokeColor=#000000;" parent="1" source="4" target="32" edge="1">
                    <mxGeometry relative="1" as="geometry"/>
                </mxCell>
                <mxCell id="42" style="edgeStyle=orthogonalEdgeStyle;rounded=0;orthogonalLoop=1;jettySize=auto;html=1;exitX=0.5;exitY=1;exitDx=0;exitDy=0;entryX=0;entryY=0.75;entryDx=0;entryDy=0;endArrow=openThin;endFill=0;strokeColor=#000000;" parent="1" source="4" target="28" edge="1">
                    <mxGeometry relative="1" as="geometry"/>
                </mxCell>
                <mxCell id="43" style="edgeStyle=orthogonalEdgeStyle;rounded=0;orthogonalLoop=1;jettySize=auto;html=1;exitX=1;exitY=0.5;exitDx=0;exitDy=0;endArrow=openThin;endFill=0;strokeColor=#000000;" parent="1" source="3" edge="1">
                    <mxGeometry relative="1" as="geometry">
                        <mxPoint x="490" y="360" as="targetPoint"/>
                    </mxGeometry>
                </mxCell>
                <mxCell id="87" style="edgeStyle=orthogonalEdgeStyle;rounded=0;orthogonalLoop=1;jettySize=auto;html=1;exitX=0.25;exitY=1;exitDx=0;exitDy=0;entryX=0.5;entryY=1;entryDx=0;entryDy=0;endArrow=openThin;endFill=0;strokeWidth=1;strokeColor=#000000;" parent="1" source="4" target="59" edge="1">
                    <mxGeometry relative="1" as="geometry">
                        <Array as="points">
                            <mxPoint x="95" y="1230"/>
                            <mxPoint x="535" y="1230"/>
                        </Array>
                    </mxGeometry>
                </mxCell>
                <mxCell id="91" style="edgeStyle=orthogonalEdgeStyle;rounded=0;orthogonalLoop=1;jettySize=auto;html=1;exitX=0.25;exitY=1;exitDx=0;exitDy=0;entryX=0.25;entryY=1;entryDx=0;entryDy=0;endArrow=openThin;endFill=0;strokeWidth=1;strokeColor=#000000;" parent="1" source="4" target="77" edge="1">
                    <mxGeometry relative="1" as="geometry">
                        <Array as="points">
                            <mxPoint x="95" y="1230"/>
                            <mxPoint x="730" y="1230"/>
                        </Array>
                    </mxGeometry>
                </mxCell>
                <mxCell id="4" value="" style="rounded=0;whiteSpace=wrap;html=1;" parent="1" vertex="1">
                    <mxGeometry x="60" y="450" width="140" height="10" as="geometry"/>
                </mxCell>
                <mxCell id="5" value="+ nom : str" style="text;html=1;align=center;verticalAlign=middle;resizable=0;points=[];autosize=1;strokeColor=none;" parent="1" vertex="1">
                    <mxGeometry x="60" y="335" width="70" height="20" as="geometry"/>
                </mxCell>
                <mxCell id="6" value="+ id : int" style="text;html=1;align=center;verticalAlign=middle;resizable=0;points=[];autosize=1;strokeColor=none;" parent="1" vertex="1">
                    <mxGeometry x="60" y="310" width="60" height="20" as="geometry"/>
                </mxCell>
                <mxCell id="7" value="+ telephone : int" style="text;html=1;align=center;verticalAlign=middle;resizable=0;points=[];autosize=1;strokeColor=none;" parent="1" vertex="1">
                    <mxGeometry x="60" y="390" width="100" height="20" as="geometry"/>
                </mxCell>
                <mxCell id="9" value="+ prenom : str" style="text;html=1;align=center;verticalAlign=middle;resizable=0;points=[];autosize=1;strokeColor=none;" parent="1" vertex="1">
                    <mxGeometry x="60" y="365" width="90" height="20" as="geometry"/>
                </mxCell>
                <mxCell id="10" value="+ role : bool" style="text;html=1;align=center;verticalAlign=middle;resizable=0;points=[];autosize=1;strokeColor=none;" parent="1" vertex="1">
                    <mxGeometry x="60" y="415" width="80" height="20" as="geometry"/>
                </mxCell>
                <mxCell id="12" value="+ adresse : str" style="text;html=1;align=center;verticalAlign=middle;resizable=0;points=[];autosize=1;strokeColor=none;" parent="1" vertex="1">
                    <mxGeometry x="505" y="350" width="90" height="20" as="geometry"/>
                </mxCell>
                <mxCell id="13" value="+ num : int" style="text;html=1;align=center;verticalAlign=middle;resizable=0;points=[];autosize=1;strokeColor=none;" parent="1" vertex="1">
                    <mxGeometry x="505" y="330" width="70" height="20" as="geometry"/>
                </mxCell>
                <mxCell id="14" value="+ code_postal : int" style="text;html=1;align=center;verticalAlign=middle;resizable=0;points=[];autosize=1;strokeColor=none;" parent="1" vertex="1">
                    <mxGeometry x="510" y="390" width="110" height="20" as="geometry"/>
                </mxCell>
                <mxCell id="15" value="+ ville : str" style="text;html=1;align=center;verticalAlign=middle;resizable=0;points=[];autosize=1;strokeColor=none;" parent="1" vertex="1">
                    <mxGeometry x="505" y="370" width="70" height="20" as="geometry"/>
                </mxCell>
                <mxCell id="18" value="+ ajout_menu() : void" style="text;html=1;align=center;verticalAlign=middle;resizable=0;points=[];autosize=1;strokeColor=none;" parent="1" vertex="1">
                    <mxGeometry x="605" y="750" width="130" height="20" as="geometry"/>
                </mxCell>
                <mxCell id="20" value="&amp;nbsp; + statut_commande : str" style="text;html=1;align=center;verticalAlign=middle;resizable=0;points=[];autosize=1;strokeColor=none;" parent="1" vertex="1">
                    <mxGeometry x="308" y="678" width="140" height="20" as="geometry"/>
                </mxCell>
                <mxCell id="23" value="+ ajout_avis() : void" style="text;html=1;align=center;verticalAlign=middle;resizable=0;points=[];autosize=1;strokeColor=none;" parent="1" vertex="1">
                    <mxGeometry x="605" y="810" width="120" height="20" as="geometry"/>
                </mxCell>
                <mxCell id="24" value="+ enleve_menu() : void" style="text;html=1;align=center;verticalAlign=middle;resizable=0;points=[];autosize=1;strokeColor=none;" parent="1" vertex="1">
                    <mxGeometry x="600" y="780" width="140" height="20" as="geometry"/>
                </mxCell>
                <mxCell id="25" value="adresse" style="rounded=0;whiteSpace=wrap;html=1;" parent="1" vertex="1">
                    <mxGeometry x="490" y="270" width="140" height="40" as="geometry"/>
                </mxCell>
                <mxCell id="45" style="edgeStyle=orthogonalEdgeStyle;rounded=0;orthogonalLoop=1;jettySize=auto;html=1;exitX=0.5;exitY=0;exitDx=0;exitDy=0;entryX=1;entryY=0.5;entryDx=0;entryDy=0;endArrow=openThin;endFill=0;strokeColor=#000000;" parent="1" source="30" target="27" edge="1">
                    <mxGeometry relative="1" as="geometry"/>
                </mxCell>
                <mxCell id="30" value="restaurant" style="rounded=0;whiteSpace=wrap;html=1;" parent="1" vertex="1">
                    <mxGeometry x="600" y="600" width="140" height="45" as="geometry"/>
                </mxCell>
                <mxCell id="33" value="commande" style="rounded=0;whiteSpace=wrap;html=1;" parent="1" vertex="1">
                    <mxGeometry x="310" y="560" width="160" height="40" as="geometry"/>
                </mxCell>
                <mxCell id="34" value="+ paiement : float" style="text;html=1;align=center;verticalAlign=middle;resizable=0;points=[];autosize=1;strokeColor=none;" parent="1" vertex="1">
                    <mxGeometry x="308" y="652.5" width="110" height="20" as="geometry"/>
                </mxCell>
                <mxCell id="35" value="&lt;font color=&quot;#000000&quot;&gt;1&lt;/font&gt;" style="text;html=1;align=center;verticalAlign=middle;resizable=0;points=[];autosize=1;strokeColor=none;" parent="1" vertex="1">
                    <mxGeometry x="687" y="572" width="17" height="17" as="geometry"/>
                </mxCell>
                <mxCell id="36" value="&lt;font color=&quot;#000000&quot;&gt;1&lt;/font&gt;" style="text;html=1;align=center;verticalAlign=middle;resizable=0;points=[];autosize=1;strokeColor=none;" parent="1" vertex="1">
                    <mxGeometry x="182" y="472" width="17" height="17" as="geometry"/>
                </mxCell>
                <mxCell id="37" value="&lt;font color=&quot;#000000&quot;&gt;1&lt;/font&gt;" style="text;html=1;align=center;verticalAlign=middle;resizable=0;points=[];autosize=1;strokeColor=none;" parent="1" vertex="1">
                    <mxGeometry x="212" y="357" width="17" height="17" as="geometry"/>
                </mxCell>
                <mxCell id="38" value="+ statut_restau : bool" style="text;html=1;align=center;verticalAlign=middle;resizable=0;points=[];autosize=1;strokeColor=none;" parent="1" vertex="1">
                    <mxGeometry x="600" y="692.5" width="130" height="20" as="geometry"/>
                </mxCell>
                <mxCell id="39" value="+ date : datetime" style="text;html=1;align=center;verticalAlign=middle;resizable=0;points=[];autosize=1;strokeColor=none;" parent="1" vertex="1">
                    <mxGeometry x="308" y="631.5" width="110" height="20" as="geometry"/>
                </mxCell>
                <mxCell id="47" value="&lt;font color=&quot;#000000&quot;&gt;0..*&lt;/font&gt;" style="text;html=1;align=center;verticalAlign=middle;resizable=0;points=[];autosize=1;strokeColor=none;" parent="1" vertex="1">
                    <mxGeometry x="281" y="647" width="28" height="17" as="geometry"/>
                </mxCell>
                <mxCell id="48" value="&lt;font color=&quot;#000000&quot;&gt;1&lt;/font&gt;" style="text;html=1;align=center;verticalAlign=middle;resizable=0;points=[];autosize=1;strokeColor=none;" parent="1" vertex="1">
                    <mxGeometry x="132" y="502" width="17" height="17" as="geometry"/>
                </mxCell>
                <mxCell id="50" value="&lt;font color=&quot;#000000&quot;&gt;1&lt;/font&gt;" style="text;html=1;align=center;verticalAlign=middle;resizable=0;points=[];autosize=1;strokeColor=none;" parent="1" vertex="1">
                    <mxGeometry x="572" y="762" width="17" height="17" as="geometry"/>
                </mxCell>
                <mxCell id="51" value="&lt;font color=&quot;#000000&quot;&gt;1&lt;/font&gt;" style="text;html=1;align=center;verticalAlign=middle;resizable=0;points=[];autosize=1;strokeColor=none;" parent="1" vertex="1">
                    <mxGeometry x="462" y="402" width="17" height="17" as="geometry"/>
                </mxCell>
                <mxCell id="52" value="&lt;font color=&quot;#000000&quot;&gt;1..*&lt;/font&gt;" style="text;html=1;align=center;verticalAlign=middle;resizable=0;points=[];autosize=1;strokeColor=none;" parent="1" vertex="1">
                    <mxGeometry x="451" y="332" width="28" height="17" as="geometry"/>
                </mxCell>
                <mxCell id="53" value="&lt;font color=&quot;#000000&quot;&gt;0..*&lt;/font&gt;" style="text;html=1;align=center;verticalAlign=middle;resizable=0;points=[];autosize=1;strokeColor=none;" parent="1" vertex="1">
                    <mxGeometry x="356" y="532" width="28" height="17" as="geometry"/>
                </mxCell>
                <mxCell id="54" value="&lt;font color=&quot;#000000&quot;&gt;0..*&lt;/font&gt;" style="text;html=1;align=center;verticalAlign=middle;resizable=0;points=[];autosize=1;strokeColor=none;" parent="1" vertex="1">
                    <mxGeometry x="476" y="614.5" width="28" height="17" as="geometry"/>
                </mxCell>
                <mxCell id="55" value="&lt;font color=&quot;#000000&quot;&gt;1&lt;/font&gt;" style="text;html=1;align=center;verticalAlign=middle;resizable=0;points=[];autosize=1;strokeColor=none;" parent="1" vertex="1">
                    <mxGeometry x="642" y="352" width="17" height="17" as="geometry"/>
                </mxCell>
                <mxCell id="56" value="+ id_restau : int" style="text;html=1;align=center;verticalAlign=middle;resizable=0;points=[];autosize=1;strokeColor=none;" parent="1" vertex="1">
                    <mxGeometry x="600" y="652.5" width="100" height="20" as="geometry"/>
                </mxCell>
                <mxCell id="57" value="+ id_commande : int" style="text;html=1;align=center;verticalAlign=middle;resizable=0;points=[];autosize=1;strokeColor=none;" parent="1" vertex="1">
                    <mxGeometry x="310" y="612.5" width="120" height="20" as="geometry"/>
                </mxCell>
                <mxCell id="58" value="&amp;nbsp;+ nom_restau : str" style="text;html=1;align=center;verticalAlign=middle;resizable=0;points=[];autosize=1;strokeColor=none;" parent="1" vertex="1">
                    <mxGeometry x="595" y="672.5" width="120" height="20" as="geometry"/>
                </mxCell>
                <mxCell id="59" value="" style="rounded=0;whiteSpace=wrap;html=1;" parent="1" vertex="1">
                    <mxGeometry x="475" y="1110" width="120" height="10" as="geometry"/>
                </mxCell>
                <mxCell id="60" value="" style="rounded=0;whiteSpace=wrap;html=1;" parent="1" vertex="1">
                    <mxGeometry x="475" y="1050" width="120" height="60" as="geometry"/>
                </mxCell>
                <mxCell id="61" value="avis" style="rounded=0;whiteSpace=wrap;html=1;" parent="1" vertex="1">
                    <mxGeometry x="475" y="1000" width="120" height="50" as="geometry"/>
                </mxCell>
                <mxCell id="62" value="&lt;font color=&quot;#000000&quot;&gt;0..1&lt;/font&gt;" style="text;html=1;align=center;verticalAlign=middle;resizable=0;points=[];autosize=1;strokeColor=none;" parent="1" vertex="1">
                    <mxGeometry x="555" y="822" width="30" height="17" as="geometry"/>
                </mxCell>
                <mxCell id="71" style="edgeStyle=orthogonalEdgeStyle;rounded=0;orthogonalLoop=1;jettySize=auto;html=1;exitX=0.5;exitY=1;exitDx=0;exitDy=0;entryX=0.5;entryY=0;entryDx=0;entryDy=0;endArrow=none;endFill=0;strokeWidth=1;strokeColor=#000000;" parent="1" source="64" target="61" edge="1">
                    <mxGeometry relative="1" as="geometry"/>
                </mxCell>
                <mxCell id="64" value="" style="rhombus;whiteSpace=wrap;html=1;fillColor=#000000;" parent="1" vertex="1">
                    <mxGeometry x="662.5" y="840" width="15" height="30" as="geometry"/>
                </mxCell>
                <mxCell id="77" value="" style="rounded=0;whiteSpace=wrap;html=1;fillColor=#2A2A2A;" parent="1" vertex="1">
                    <mxGeometry x="700" y="1150" width="120" height="10" as="geometry"/>
                </mxCell>
                <mxCell id="78" value="" style="rounded=0;whiteSpace=wrap;html=1;fillColor=#2A2A2A;" parent="1" vertex="1">
                    <mxGeometry x="700" y="1040" width="120" height="110" as="geometry"/>
                </mxCell>
                <mxCell id="81" style="edgeStyle=orthogonalEdgeStyle;rounded=0;orthogonalLoop=1;jettySize=auto;html=1;exitX=0.5;exitY=0;exitDx=0;exitDy=0;endArrow=none;endFill=0;strokeWidth=1;strokeColor=#000000;" parent="1" source="79" edge="1">
                    <mxGeometry relative="1" as="geometry">
                        <mxPoint x="670" y="870" as="targetPoint"/>
                    </mxGeometry>
                </mxCell>
                <mxCell id="79" value="menu" style="rounded=0;whiteSpace=wrap;html=1;fillColor=#2A2A2A;" parent="1" vertex="1">
                    <mxGeometry x="700" y="1000" width="120" height="40" as="geometry"/>
                </mxCell>
                <mxCell id="82" value="&lt;font color=&quot;#000000&quot;&gt;1&lt;/font&gt;" style="text;html=1;align=center;verticalAlign=middle;resizable=0;points=[];autosize=1;strokeColor=none;" parent="1" vertex="1">
                    <mxGeometry x="692" y="862" width="17" height="17" as="geometry"/>
                </mxCell>
                <mxCell id="83" value="&lt;font color=&quot;#000000&quot;&gt;0..*&lt;/font&gt;" style="text;html=1;align=center;verticalAlign=middle;resizable=0;points=[];autosize=1;strokeColor=none;" parent="1" vertex="1">
                    <mxGeometry x="546" y="972" width="28" height="17" as="geometry"/>
                </mxCell>
                <mxCell id="85" value="&lt;font color=&quot;#000000&quot;&gt;0..*&lt;/font&gt;" style="text;html=1;align=center;verticalAlign=middle;resizable=0;points=[];autosize=1;strokeColor=none;" parent="1" vertex="1">
                    <mxGeometry x="771" y="982" width="28" height="17" as="geometry"/>
                </mxCell>
                <mxCell id="92" value="&lt;font color=&quot;#000000&quot;&gt;0..*&lt;/font&gt;" style="text;html=1;align=center;verticalAlign=middle;resizable=0;points=[];autosize=1;strokeColor=none;" parent="1" vertex="1">
                    <mxGeometry x="551" y="1132" width="28" height="17" as="geometry"/>
                </mxCell>
                <mxCell id="94" value="&lt;font color=&quot;#000000&quot;&gt;0..*&lt;/font&gt;" style="text;html=1;align=center;verticalAlign=middle;resizable=0;points=[];autosize=1;strokeColor=none;" parent="1" vertex="1">
                    <mxGeometry x="691" y="1171" width="28" height="17" as="geometry"/>
                </mxCell>
                <mxCell id="96" value="+ plat : str" style="text;html=1;align=center;verticalAlign=middle;resizable=0;points=[];autosize=1;strokeColor=none;" parent="1" vertex="1">
                    <mxGeometry x="705" y="1075" width="70" height="20" as="geometry"/>
                </mxCell>
                <mxCell id="97" value="+ dessert : str" style="text;html=1;align=center;verticalAlign=middle;resizable=0;points=[];autosize=1;strokeColor=none;" parent="1" vertex="1">
                    <mxGeometry x="705" y="1090" width="90" height="20" as="geometry"/>
                </mxCell>
                <mxCell id="98" value="+ boisson : str" style="text;html=1;align=center;verticalAlign=middle;resizable=0;points=[];autosize=1;strokeColor=none;" parent="1" vertex="1">
                    <mxGeometry x="705" y="1110" width="90" height="20" as="geometry"/>
                </mxCell>
                <mxCell id="99" value="+ id_menu : int" style="text;html=1;align=center;verticalAlign=middle;resizable=0;points=[];autosize=1;strokeColor=none;" parent="1" vertex="1">
                    <mxGeometry x="710" y="1040" width="90" height="20" as="geometry"/>
                </mxCell>
                <mxCell id="100" value="&amp;nbsp;+ avis : str" style="text;html=1;align=center;verticalAlign=middle;resizable=0;points=[];autosize=1;strokeColor=none;" parent="1" vertex="1">
                    <mxGeometry x="475" y="1070" width="70" height="20" as="geometry"/>
                </mxCell>
                <mxCell id="102" value="+ prix_menu : float" style="text;html=1;align=center;verticalAlign=middle;resizable=0;points=[];autosize=1;strokeColor=none;" parent="1" vertex="1">
                    <mxGeometry x="705" y="1130" width="110" height="20" as="geometry"/>
                </mxCell>
                <mxCell id="103" value="&lt;font color=&quot;#000000&quot;&gt;1&lt;/font&gt;" style="text;html=1;align=center;verticalAlign=middle;resizable=0;points=[];autosize=1;strokeColor=none;" parent="1" vertex="1">
                    <mxGeometry x="72" y="472" width="17" height="17" as="geometry"/>
                </mxCell>
                <mxCell id="104" value="&amp;nbsp; + liste_menus : str" style="text;html=1;align=center;verticalAlign=middle;resizable=0;points=[];autosize=1;strokeColor=none;" parent="1" vertex="1">
                    <mxGeometry x="303" y="700" width="120" height="20" as="geometry"/>
                </mxCell>
                <mxCell id="105" value="+ id_avis : int" style="text;html=1;align=center;verticalAlign=middle;resizable=0;points=[];autosize=1;strokeColor=none;" parent="1" vertex="1">
                    <mxGeometry x="475" y="1050" width="90" height="20" as="geometry"/>
                </mxCell>
                <mxCell id="106" value="" style="rounded=0;whiteSpace=wrap;html=1;" vertex="1" parent="1">
                    <mxGeometry x="670" y="1400" width="120" height="10" as="geometry"/>
                </mxCell>
                <mxCell id="107" value="" style="rounded=0;whiteSpace=wrap;html=1;" vertex="1" parent="1">
                    <mxGeometry x="670" y="1330" width="120" height="70" as="geometry"/>
                </mxCell>
                <mxCell id="115" style="edgeStyle=orthogonalEdgeStyle;rounded=0;orthogonalLoop=1;jettySize=auto;html=1;exitX=0.5;exitY=0;exitDx=0;exitDy=0;entryX=0.5;entryY=1;entryDx=0;entryDy=0;endArrow=none;endFill=0;strokeColor=#000000;" edge="1" parent="1" source="108" target="114">
                    <mxGeometry relative="1" as="geometry">
                        <Array as="points">
                            <mxPoint x="730" y="1250"/>
                            <mxPoint x="780" y="1250"/>
                        </Array>
                    </mxGeometry>
                </mxCell>
                <mxCell id="108" value="article" style="rounded=0;whiteSpace=wrap;html=1;" vertex="1" parent="1">
                    <mxGeometry x="670" y="1290" width="120" height="40" as="geometry"/>
                </mxCell>
                <mxCell id="111" value="+ type_article : str" style="text;html=1;strokeColor=none;fillColor=none;align=center;verticalAlign=middle;whiteSpace=wrap;rounded=0;" vertex="1" parent="1">
                    <mxGeometry x="665" y="1360" width="130" height="20" as="geometry"/>
                </mxCell>
                <mxCell id="112" value="&lt;font color=&quot;#000000&quot;&gt;3&lt;/font&gt;" style="text;html=1;strokeColor=none;fillColor=none;align=center;verticalAlign=middle;whiteSpace=wrap;rounded=0;" vertex="1" parent="1">
                    <mxGeometry x="730" y="1260" width="40" height="20" as="geometry"/>
                </mxCell>
                <mxCell id="113" value="+ id_article : int" style="text;html=1;strokeColor=none;fillColor=none;align=center;verticalAlign=middle;whiteSpace=wrap;rounded=0;" vertex="1" parent="1">
                    <mxGeometry x="680" y="1340" width="90" height="20" as="geometry"/>
                </mxCell>
                <mxCell id="114" value="" style="rhombus;whiteSpace=wrap;html=1;fillColor=#000000;" vertex="1" parent="1">
                    <mxGeometry x="770" y="1160" width="20" height="30" as="geometry"/>
                </mxCell>
                <mxCell id="118" value="+ nom_article : str" style="text;html=1;strokeColor=none;fillColor=none;align=center;verticalAlign=middle;whiteSpace=wrap;rounded=0;" vertex="1" parent="1">
                    <mxGeometry x="665" y="1380" width="130" height="20" as="geometry"/>
                </mxCell>
                <mxCell id="119" value="+ nom_menu : str" style="text;html=1;align=center;verticalAlign=middle;resizable=0;points=[];autosize=1;strokeColor=none;" vertex="1" parent="1">
                    <mxGeometry x="705" y="1060" width="110" height="20" as="geometry"/>
                </mxCell>
                <mxCell id="120" value="+ specialite : str" style="text;html=1;align=center;verticalAlign=middle;resizable=0;points=[];autosize=1;strokeColor=none;" vertex="1" parent="1">
                    <mxGeometry x="600.5" y="715" width="100" height="20" as="geometry"/>
                </mxCell>
            </root>
        </mxGraphModel>
    </diagram>
</mxfile>